<?xml version="1.0" encoding="UTF-8"?>
<svg xmlns="http://www.w3.org/2000/svg" width="1240px" height="645px" viewBox="0 0 1240 645" style="background:white;font-family:'Times New Roman',serif" role="img" aria-labelledby="BUC-financial-title BUC-financial-desc"><title id="BUC-financial-title">BUC-financial — Quyết toán, quan hệ khách hàng và dữ liệu</title><desc id="BUC-financial-desc">Mục tiêu kinh doanh; nhân sự bên trong ranh giới là worker, không phải role kế thừa.</desc><rect x="350" y="18" width="872" height="609" rx="6" fill="white" stroke="#773b4a"/><text x="780" y="53" text-anchor="middle" font-size="18" font-weight="700">Hoạt động phối hợp BeautyBook và cơ sở</text><path data-association="BA BUC_05" d="M 158 314.5 H 285 V 100 H 427.73516427842264" fill="none" stroke="#773b4a" stroke-width="1.2" stroke-linejoin="round"/><path data-association="BUC_05 BW" d="M 1082 314.5 H 1030 V 150 H 882.2648357215774" fill="none" stroke="#773b4a" stroke-width="1.2" stroke-linejoin="round"/><path data-association="BA BUC_06" d="M 158 322.5 H 299 V 310 H 427.73516427842264" fill="none" stroke="#773b4a" stroke-width="1.2" stroke-linejoin="round"/><path data-association="BUC_06 BW" d="M 1082 322.5 H 1018 V 360 H 882.2648357215774" fill="none" stroke="#773b4a" stroke-width="1.2" stroke-linejoin="round"/><path data-association="BA BUC_12" d="M 158 330.5 H 313 V 520 H 427.73516427842264" fill="none" stroke="#773b4a" stroke-width="1.2" stroke-linejoin="round"/><path data-association="BUC_12 BW" d="M 1082 330.5 H 1006 V 570 H 882.2648357215774" fill="none" stroke="#773b4a" stroke-width="1.2" stroke-linejoin="round"/><g data-uml-id="BUC_05"><ellipse cx="655" cy="125" rx="250" ry="60" fill="#fffde7" stroke="#773b4a"/><text x="655" y="120" text-anchor="middle" font-size="17">BUC-05</text><text x="655" y="142" text-anchor="middle" font-size="17">Quyết toán khoản phải trả</text></g><g data-uml-id="BUC_06"><ellipse cx="655" cy="335" rx="250" ry="60" fill="#fffde7" stroke="#773b4a"/><text x="655" y="330" text-anchor="middle" font-size="17">BUC-06</text><text x="655" y="352" text-anchor="middle" font-size="17">Duy trì quan hệ với khách</text></g><g data-uml-id="BUC_12"><ellipse cx="655" cy="545" rx="250" ry="60" fill="#fffde7" stroke="#773b4a"/><text x="655" y="540" text-anchor="middle" font-size="17">BUC-12</text><text x="655" y="562" text-anchor="middle" font-size="17">Bảo vệ tài khoản và quyền dữ liệu</text></g><g data-uml-id="BA"><circle cx="130" cy="282.5" r="13" fill="white" stroke="#773b4a"/><path d="M 130 295.5 V 344.5 M 102 322.5 H 158 M 130 344.5 l -22 28 M 130 344.5 l 22 28" fill="none" stroke="#773b4a"/><text x="130" y="256.5" text-anchor="middle" font-size="15">«business actor»</text><text x="130" y="398.5" text-anchor="middle" font-size="17">Khách sử dụng dịch vụ</text></g><g data-uml-id="BW"><circle cx="1110" cy="282.5" r="13" fill="white" stroke="#773b4a"/><path d="M 1110 295.5 V 344.5 M 1082 322.5 H 1138 M 1110 344.5 l -22 28 M 1110 344.5 l 22 28" fill="none" stroke="#773b4a"/><text x="1110" y="256.5" text-anchor="middle" font-size="15">«business worker»</text><text x="1110" y="398.5" text-anchor="middle" font-size="17">Điều phối nền tảng</text></g></svg>