<?xml version="1.0" encoding="UTF-8"?>
<svg xmlns="http://www.w3.org/2000/svg" width="1040px" height="1170px" viewBox="0 0 1040 1170" style="background:white;font-family:'Times New Roman',serif" role="img" aria-labelledby="SUC-overview-title SUC-overview-desc"><title id="SUC-overview-title">SUC-overview — Các tương tác cốt lõi</title><desc id="SUC-overview-desc">Association thể hiện tham gia; quyền chi tiết nằm trong đặc tả. Không dùng include/extend để mô tả thứ tự.</desc><rect x="420" y="18" width="610" height="1134" rx="6" fill="white" stroke="#773b4a"/><text x="725" y="53" text-anchor="middle" font-size="18" font-weight="700">Hệ thống BeautyBook</text><path data-association="V SUC_01" d="M 158 92 H 285 V 100 H 485.00868070626484" fill="none" stroke="#773b4a" stroke-width="1.2" stroke-linejoin="round"/><path data-association="C SUC_01" d="M 158 279 H 288 V 125 H 460" fill="none" stroke="#773b4a" stroke-width="1.2" stroke-linejoin="round"/><path data-association="O SUC_01" d="M 158 466 H 291 V 150 H 485.00868070626484" fill="none" stroke="#773b4a" stroke-width="1.2" stroke-linejoin="round"/><path data-association="C SUC_05" d="M 158 295 H 302 V 336.25 H 485.00868070626484" fill="none" stroke="#773b4a" stroke-width="1.2" stroke-linejoin="round"/><path data-association="O SUC_13" d="M 158 474 H 305 V 572.5 H 485.00868070626484" fill="none" stroke="#773b4a" stroke-width="1.2" stroke-linejoin="round"/><path data-association="R SUC_13" d="M 158 653 H 294 V 622.5 H 485.00868070626484" fill="none" stroke="#773b4a" stroke-width="1.2" stroke-linejoin="round"/><path data-association="S SUC_17" d="M 158 840 H 297 V 808.75 H 485.00868070626484" fill="none" stroke="#773b4a" stroke-width="1.2" stroke-linejoin="round"/><path data-association="O SUC_17" d="M 158 482 H 319 V 858.75 H 485.00868070626484" fill="none" stroke="#773b4a" stroke-width="1.2" stroke-linejoin="round"/><path data-association="A SUC_23" d="M 158 1027 H 300 V 1045 H 485.00868070626484" fill="none" stroke="#773b4a" stroke-width="1.2" stroke-linejoin="round"/><g data-uml-id="SUC_01"><ellipse cx="735" cy="125" rx="275" ry="60" fill="#fffde7" stroke="#773b4a"/><text x="735" y="120" text-anchor="middle" font-size="17">SUC-01</text><text x="735" y="142" text-anchor="middle" font-size="17">Tra cứu dịch vụ và cơ sở</text></g><g data-uml-id="SUC_05"><ellipse cx="735" cy="361.25" rx="275" ry="60" fill="#fffde7" stroke="#773b4a"/><text x="735" y="356.25" text-anchor="middle" font-size="17">SUC-05</text><text x="735" y="378.25" text-anchor="middle" font-size="17">Tự đặt lịch dịch vụ</text></g><g data-uml-id="SUC_13"><ellipse cx="735" cy="597.5" rx="275" ry="60" fill="#fffde7" stroke="#773b4a"/><text x="735" y="592.5" text-anchor="middle" font-size="17">SUC-13</text><text x="735" y="614.5" text-anchor="middle" font-size="17">Tạo lịch hộ tại cơ sở</text></g><g data-uml-id="SUC_17"><ellipse cx="735" cy="833.75" rx="275" ry="60" fill="#fffde7" stroke="#773b4a"/><text x="735" y="828.75" text-anchor="middle" font-size="17">SUC-17</text><text x="735" y="850.75" text-anchor="middle" font-size="17">Thực hiện phần dịch vụ được giao</text></g><g data-uml-id="SUC_23"><ellipse cx="735" cy="1070" rx="275" ry="60" fill="#fffde7" stroke="#773b4a"/><text x="735" y="1065" text-anchor="middle" font-size="17">SUC-23</text><text x="735" y="1087" text-anchor="middle" font-size="17">Thẩm định doanh nghiệp và chi nhánh</text></g><g data-uml-id="V"><circle cx="130" cy="60" r="13" fill="white" stroke="#773b4a"/><path d="M 130 73 V 122 M 102 100 H 158 M 130 122 l -22 28 M 130 122 l 22 28" fill="none" stroke="#773b4a"/><text x="130" y="176" text-anchor="middle" font-size="17">Người chưa đăng nhập</text></g><g data-uml-id="C"><circle cx="130" cy="247" r="13" fill="white" stroke="#773b4a"/><path d="M 130 260 V 309 M 102 287 H 158 M 130 309 l -22 28 M 130 309 l 22 28" fill="none" stroke="#773b4a"/><text x="130" y="363" text-anchor="middle" font-size="17">Khách hàng</text></g><g data-uml-id="O"><circle cx="130" cy="434" r="13" fill="white" stroke="#773b4a"/><path d="M 130 447 V 496 M 102 474 H 158 M 130 496 l -22 28 M 130 496 l 22 28" fill="none" stroke="#773b4a"/><text x="130" y="550" text-anchor="middle" font-size="17">Chủ doanh nghiệp</text></g><g data-uml-id="R"><circle cx="130" cy="621" r="13" fill="white" stroke="#773b4a"/><path d="M 130 634 V 683 M 102 661 H 158 M 130 683 l -22 28 M 130 683 l 22 28" fill="none" stroke="#773b4a"/><text x="130" y="737" text-anchor="middle" font-size="17">Lễ tân</text></g><g data-uml-id="S"><circle cx="130" cy="808" r="13" fill="white" stroke="#773b4a"/><path d="M 130 821 V 870 M 102 848 H 158 M 130 870 l -22 28 M 130 870 l 22 28" fill="none" stroke="#773b4a"/><text x="130" y="924" text-anchor="middle" font-size="17">Chuyên viên</text></g><g data-uml-id="A"><circle cx="130" cy="995" r="13" fill="white" stroke="#773b4a"/><path d="M 130 1008 V 1057 M 102 1035 H 158 M 130 1057 l -22 28 M 130 1057 l 22 28" fill="none" stroke="#773b4a"/><text x="130" y="1111" text-anchor="middle" font-size="17">Quản trị nền tảng</text></g></svg>